<?xml version="1.0" encoding="UTF-8"?>
<svg xmlns="http://www.w3.org/2000/svg" xmlns:xlink="http://www.w3.org/1999/xlink" width="3000" height="2250" viewBox="0 0 3000 2250">

<path fill-rule="nonzero" fill="rgb(94.921875%, 1.960754%, 1.960754%)" fill-opacity="1" d="M 1592.910156 1254.554688 L 1687.980469 1340.335938 L 2737.019531 1340.335938 L 2832.089844 1254.554688 C 2419.03125 1274.175781 2005.96875 1276.765625 1592.910156 1254.554688 Z M 1778.929688 1340.335938 L 1778.929688 1400.914062 L 1900.320312 1400.914062 L 1900.320312 1457.289062 L 1884.441406 1457.289062 L 1884.441406 1498.074219 L 1966.871094 1502.648438 L 1966.871094 1457.289062 L 1951 1457.289062 L 1951 1400.914062 L 2173.199219 1400.914062 L 2173.199219 1498.273438 L 2251.800781 1499.753906 L 2251.800781 1398.761719 L 2475.429688 1400.914062 L 2475.429688 1457.289062 L 2459.558594 1457.289062 L 2459.558594 1498.414062 L 2541.980469 1498.488281 L 2541.980469 1457.289062 L 2526.121094 1457.289062 L 2526.121094 1400.914062 L 2646.058594 1400.914062 L 2646.058594 1339.816406 Z M 1773.191406 1497.964844 L 1773.191406 1558.539062 L 2653.230469 1558.539062 L 2653.230469 1498.558594 Z M 1827.089844 1558.539062 L 1827.089844 1619.117188 L 1908.128906 1619.117188 L 1908.128906 1961.613281 L 1878.648438 1961.613281 L 1878.648438 2073.445312 L 2008.21875 2073.445312 L 2008.21875 1961.613281 L 1978.730469 1961.613281 L 1978.730469 1619.117188 L 2447.691406 1619.117188 L 2447.691406 1961.613281 L 2418.210938 1961.613281 L 2418.210938 2073.445312 L 2547.78125 2073.445312 L 2547.78125 1961.613281 L 2518.289062 1961.613281 L 2518.289062 1619.117188 L 2599.339844 1619.117188 L 2599.339844 1558.519531 Z M 1827.089844 1558.539062 "/>
<path fill-rule="nonzero" fill="rgb(94.921875%, 1.960754%, 1.960754%)" fill-opacity="1" d="M 0 2250 L 3000 2250 L 3000 2073.445312 L 0 2073.445312 Z M 0 2250 "/>
</svg>
